<?xml version="1.0" encoding="utf-8"?>
<!-- Generator: Adobe Illustrator 19.0.0, SVG Export Plug-In . SVG Version: 6.00 Build 0)  -->
<svg version="1.1" id="圖層_1" xmlns="http://www.w3.org/2000/svg" xmlns:xlink="http://www.w3.org/1999/xlink" x="0px" y="0px"
	 viewBox="-312 648.1 123.3 38.9" style="enable-background:new -312 648.1 123.3 38.9;" xml:space="preserve">
<style type="text/css">
	.st0{opacity:0.75;}
	.st1{fill:#8C8C8C;}
	.st2{fill:url(#SVGID_1_);}
	.st3{fill:#416B33;}
	.st4{fill:url(#SVGID_2_);}
	.st5{fill:url(#SVGID_3_);}
	.st6{fill:#5A4444;}
	.st7{fill:#F4F4F4;}
	.st8{fill:url(#SVGID_4_);}
	.st9{fill:#D48D8D;}
	.st10{fill:url(#SVGID_5_);}
	.st11{fill:url(#SVGID_6_);}
	.st12{fill:url(#SVGID_7_);}
	.st13{fill:url(#SVGID_8_);}
	.st14{fill:url(#SVGID_9_);}
	.st15{fill:url(#SVGID_10_);}
	.st16{fill:url(#SVGID_11_);}
	.st17{fill:#068FBF;}
	.st18{fill:url(#SVGID_12_);}
	.st19{fill:url(#SVGID_13_);}
	.st20{fill:url(#SVGID_14_);}
	.st21{fill:url(#SVGID_15_);}
	.st22{fill:url(#SVGID_16_);}
	.st23{fill:url(#SVGID_17_);}
	.st24{fill:url(#SVGID_18_);}
	.st25{fill:url(#SVGID_19_);}
	.st26{fill:url(#SVGID_20_);}
	.st27{fill:url(#SVGID_21_);}
</style>
<g>
	<g class="st0">
		<path class="st1" d="M-522.3,1063.9c-0.6-1.5-2.3-2.3-3.8-1.7l-9.2,3.6c0.2,0.6,1.6,4.7,1.9,4.7c0.3,0,0.5,0.1,0.9-0.9
			c0.4-0.9,1.9,0,1.7,1.1c-0.2,1.1-1,0.7-1.3,0.8c-0.3,0.1-0.8,0.4-0.8,0.6c0.1,0.2,1.5,3.9,1.5,3.9l-4,1.5c0,0-0.4,0.7,0,1.1
			c0.5,0.4,0.8,0.7,0.6,1.2c-0.2,0.5-2.2,1.1-2.2,0.3c0-0.8-0.2-1.8-1-1.6c-0.7,0.2-4.1,1.6-4.8,1.8l4.1,10.5
			c0.6,1.5,2.3,2.3,3.8,1.7l17.8-7c1.5-0.6,2.3-2.3,1.7-3.8L-522.3,1063.9z"/>
		<path class="st1" d="M-538,1078.5c0.8-0.2,1,0.8,1,1.6c0,0.8,2,0.3,2.2-0.3s-0.1-0.8-0.6-1.2s0-1.1,0-1.1l4-1.5
			c0,0-1.4-3.7-1.5-3.9c-0.1-0.2,0.4-0.6,0.8-0.6c0.4,0,1.1,0.3,1.3-0.8s-1.4-2-1.7-1.1c-0.4,0.9-0.6,0.9-0.9,0.9
			c-0.2,0-1.7-4.1-1.9-4.7l-8.6,3.4c-1.5,0.6-2.3,2.3-1.7,3.8l2.9,7.3C-542.1,1080.1-538.7,1078.7-538,1078.5z"/>
		<path class="st1" d="M-537.7,1078.5c0.8-0.2,1,0.8,1,1.6c0,0.8,2,0.3,2.2-0.3s-0.1-0.8-0.6-1.2s0-1.1,0-1.1l4-1.5
			c0,0-1.4-3.7-1.5-3.9c-0.1-0.2,0.4-0.6,0.8-0.6c0.3,0,1.1,0.3,1.3-0.8c0.2-1-1.4-2-1.7-1.1c-0.4,0.9-0.6,0.9-0.9,0.9
			c-0.2,0-1.7-4.1-1.9-4.7l-8.6,3.4c-1.5,0.6-2.3,2.3-1.7,3.8l2.9,7.3C-541.8,1080-538.4,1078.7-537.7,1078.5z"/>
		<path class="st1" d="M-523.2,1076.1c-0.8,0.2-1-0.8-1-1.6c0-0.8-2-0.3-2.2,0.3c-0.2,0.6,0.1,0.8,0.6,1.2c0.5,0.4,0.1,1.1,0.1,1.1
			l-4,1.6c0,0,1.5,3.7,1.5,3.8c0.1,0.2-0.4,0.6-0.8,0.6c-0.3,0-1.1-0.3-1.3,0.8c-0.2,1,1.4,2,1.7,1.1c0.3-0.9,0.6-0.9,0.9-0.9
			c0.2,0,1.7,4.1,2,4.7l8.6-3.5c1.5-0.6,2.2-2.3,1.6-3.8l-3-7.2C-519.1,1074.5-522.5,1075.9-523.2,1076.1z"/>
		<path class="st1" d="M-523,1076.1c-0.8,0.2-1-0.8-1-1.6c0-0.8-2-0.3-2.2,0.3s0.1,0.8,0.6,1.2c0.5,0.4,0.1,1.1,0.1,1.1l-4,1.6
			c0,0,1.5,3.7,1.5,3.8c0.1,0.2-0.4,0.6-0.8,0.6c-0.3,0-1.1-0.3-1.3,0.8c-0.2,1,1.4,2,1.7,1.1c0.3-0.9,0.6-0.9,0.9-0.9
			c0.2,0,1.7,4.1,2,4.7l8.6-3.5c1.5-0.6,2.2-2.3,1.6-3.8l-3-7.2C-518.9,1074.5-522.3,1075.9-523,1076.1z"/>
		<polygon class="st1" points="-528.6,1065.6 -530.6,1078.1 -527.1,1065.9 		"/>
		<circle class="st1" cx="-526.6" cy="1060.9" r="5.5"/>
		<circle class="st1" cx="-528.5" cy="1058.4" r="1.3"/>
		<polygon class="st1" points="-528.5,1065.5 -530.4,1078.1 -527,1065.9 		"/>
		<circle class="st1" cx="-526.5" cy="1060.9" r="5.5"/>
		<circle class="st1" cx="-529.6" cy="1059.1" r="1.2"/>
	</g>
	<g>
		<g>
			<g>
				
					<linearGradient id="SVGID_1_" gradientUnits="userSpaceOnUse" x1="-519.5013" y1="248.1514" x2="-538.6251" y2="267.2751" gradientTransform="matrix(1 0 0 -1 0 1336.2)">
					<stop  offset="2.040816e-002" style="stop-color:#5AADD1"/>
					<stop  offset="0.3308" style="stop-color:#57ACD1"/>
					<stop  offset="0.5925" style="stop-color:#4CA7D2"/>
					<stop  offset="0.8357" style="stop-color:#3BA0D2"/>
					<stop  offset="0.9949" style="stop-color:#2B99D3"/>
				</linearGradient>
				<path class="st2" d="M-522.3,1063.6c-0.6-1.5-2.3-2.3-3.8-1.7l-9.2,3.6c0.2,0.6,1.6,4.7,1.9,4.7c0.3,0,0.5,0.1,0.9-0.9
					c0.4-0.9,1.9,0,1.7,1.1c-0.2,1-1,0.7-1.3,0.8c-0.3,0-0.8,0.4-0.8,0.6c0.1,0.2,1.5,3.9,1.5,3.9l-4,1.5c0,0-0.4,0.7,0,1.1
					c0.5,0.4,0.8,0.7,0.6,1.2c-0.2,0.6-2.2,1.1-2.2,0.3c0-0.8-0.2-1.8-1-1.6c-0.7,0.2-4.1,1.6-4.8,1.8l4.1,10.5
					c0.6,1.5,2.3,2.3,3.8,1.7l17.8-7c1.5-0.6,2.3-2.3,1.7-3.8L-522.3,1063.6z"/>
				<path class="st3" d="M-538,1078.2c0.8-0.2,1,0.8,1,1.6c0,0.8,2,0.3,2.2-0.3c0.2-0.6-0.1-0.8-0.6-1.2s0-1.1,0-1.1l4-1.5
					c0,0-1.4-3.7-1.5-3.9c-0.1-0.2,0.4-0.6,0.8-0.6c0.3,0,1.1,0.3,1.3-0.8c0.2-1-1.4-2-1.7-1.1c-0.4,0.9-0.6,0.9-0.9,0.9
					c-0.2,0-1.7-4.1-1.9-4.7l-8.6,3.4c-1.5,0.6-2.3,2.3-1.7,3.8l2.9,7.3C-542.1,1079.8-538.7,1078.4-538,1078.2z"/>
				
					<linearGradient id="SVGID_2_" gradientUnits="userSpaceOnUse" x1="-545.5311" y1="263.3425" x2="-530.5135" y2="263.3425" gradientTransform="matrix(1 0 0 -1 0 1336.2)">
					<stop  offset="2.040816e-002" style="stop-color:#80AF68"/>
					<stop  offset="0.9847" style="stop-color:#6BB149"/>
				</linearGradient>
				<path class="st4" d="M-537.7,1078.2c0.8-0.2,1,0.8,1,1.6c0,0.8,2,0.3,2.2-0.3c0.2-0.6-0.1-0.8-0.6-1.2s0-1.1,0-1.1l4-1.5
					c0,0-1.4-3.7-1.5-3.9c-0.1-0.2,0.4-0.6,0.8-0.6c0.4,0,1.1,0.3,1.3-0.8c0.2-1-1.4-2-1.7-1.1s-0.6,0.9-0.9,0.9
					c-0.2,0-1.7-4.1-1.9-4.7l-8.6,3.4c-1.5,0.6-2.3,2.3-1.7,3.8l2.9,7.3C-541.8,1079.8-538.4,1078.4-537.7,1078.2z"/>
				<path class="st3" d="M-523.2,1075.8c-0.8,0.2-1-0.8-1-1.6s-2-0.3-2.2,0.3c-0.2,0.6,0.1,0.8,0.6,1.2s0.1,1.1,0.1,1.1l-4,1.6
					c0,0,1.5,3.7,1.5,3.8c0.1,0.2-0.4,0.6-0.8,0.6c-0.3,0-1.1-0.3-1.3,0.8c-0.2,1,1.4,2,1.7,1.1c0.3-0.9,0.6-0.9,0.9-0.9
					c0.2,0,1.7,4.1,2,4.7l8.6-3.5c1.5-0.6,2.2-2.3,1.6-3.8l-3-7.2C-519.1,1074.2-522.5,1075.6-523.2,1075.8z"/>
				
					<linearGradient id="SVGID_3_" gradientUnits="userSpaceOnUse" x1="-517.4346" y1="250.3075" x2="-527.511" y2="260.3839" gradientTransform="matrix(1 0 0 -1 0 1336.2)">
					<stop  offset="2.040816e-002" style="stop-color:#80AF68"/>
					<stop  offset="0.2761" style="stop-color:#77B05A"/>
					<stop  offset="0.6446" style="stop-color:#6EB14D"/>
					<stop  offset="0.9847" style="stop-color:#6BB149"/>
				</linearGradient>
				<path class="st5" d="M-523,1075.8c-0.8,0.2-1-0.8-1-1.6s-2-0.3-2.2,0.3c-0.2,0.6,0.1,0.8,0.6,1.2s0.1,1.1,0.1,1.1l-4,1.6
					c0,0,1.5,3.7,1.5,3.8c0.1,0.2-0.4,0.6-0.8,0.6c-0.3,0-1.1-0.3-1.3,0.8c-0.2,1,1.4,2,1.7,1.1c0.3-0.9,0.6-0.9,0.9-0.9
					c0.2,0,1.7,4.1,2,4.7l8.6-3.5c1.5-0.6,2.2-2.3,1.6-3.8l-3-7.2C-518.9,1074.2-522.3,1075.6-523,1075.8z"/>
			</g>
			<g>
				<polygon class="st6" points="-528.6,1065.3 -530.6,1077.8 -527.1,1065.7 				"/>
				<circle class="st6" cx="-526.6" cy="1060.6" r="5.5"/>
				<circle class="st6" cx="-528.5" cy="1058.1" r="1.3"/>
			</g>
			<g>
				<polygon class="st7" points="-528.5,1065.3 -530.4,1077.8 -527,1065.6 				"/>
				
					<linearGradient id="SVGID_4_" gradientUnits="userSpaceOnUse" x1="-522.5934" y1="279.5065" x2="-530.3973" y2="271.7027" gradientTransform="matrix(1 0 0 -1 0 1336.2)">
					<stop  offset="2.040816e-002" style="stop-color:#D48D8D"/>
					<stop  offset="4.409382e-002" style="stop-color:#D28A8A"/>
					<stop  offset="0.2298" style="stop-color:#C17474"/>
					<stop  offset="0.4334" style="stop-color:#B66564"/>
					<stop  offset="0.6664" style="stop-color:#AF5C5B"/>
					<stop  offset="0.9949" style="stop-color:#AD5958"/>
				</linearGradient>
				<circle class="st8" cx="-526.5" cy="1060.6" r="5.5"/>
			</g>
			<circle class="st9" cx="-529.6" cy="1058.8" r="1.2"/>
		</g>
	</g>
</g>
<g>
	
		<linearGradient id="SVGID_5_" gradientUnits="userSpaceOnUse" x1="-503.3252" y1="257.1255" x2="-513.5272" y2="267.3275" gradientTransform="matrix(1 0 0 -1 0 1336.2)">
		<stop  offset="2.040816e-002" style="stop-color:#5AADD1"/>
		<stop  offset="5.555695e-002" style="stop-color:#57ACD1"/>
		<stop  offset="0.4054" style="stop-color:#3FA1D2"/>
		<stop  offset="0.7279" style="stop-color:#309BD3"/>
		<stop  offset="0.9949" style="stop-color:#2B99D3"/>
	</linearGradient>
	<path class="st10" d="M-506.7,1066.4c2.5,0,4.5,0.5,5.8,1.4c1.4,1,2,2.4,2,4.3c0,1-0.2,1.9-0.6,2.7c-0.4,0.7-0.9,1.3-1.6,1.8
		c-0.7,0.5-1.6,0.8-2.6,1c-1,0.2-2.1,0.3-3.4,0.3h-2v6.7h-2.5v-17.8c0.7-0.2,1.5-0.3,2.4-0.4
		C-508.2,1066.4-507.4,1066.4-506.7,1066.4z M-506.5,1068.6c-1.1,0-1.9,0-2.5,0.1v7.1h1.9c0.9,0,1.6-0.1,2.3-0.2
		c0.7-0.1,1.3-0.3,1.8-0.6c0.5-0.3,0.8-0.6,1.1-1.1s0.4-1.1,0.4-1.8c0-0.7-0.1-1.3-0.4-1.7c-0.3-0.5-0.6-0.8-1.1-1.1
		c-0.5-0.3-1-0.5-1.6-0.6C-505.2,1068.7-505.8,1068.6-506.5,1068.6z"/>
	
		<linearGradient id="SVGID_6_" gradientUnits="userSpaceOnUse" x1="-489.3372" y1="255.6872" x2="-499.8533" y2="266.2033" gradientTransform="matrix(1 0 0 -1 0 1336.2)">
		<stop  offset="2.040816e-002" style="stop-color:#5AADD1"/>
		<stop  offset="5.555695e-002" style="stop-color:#57ACD1"/>
		<stop  offset="0.4054" style="stop-color:#3FA1D2"/>
		<stop  offset="0.7279" style="stop-color:#309BD3"/>
		<stop  offset="0.9949" style="stop-color:#2B99D3"/>
	</linearGradient>
	<path class="st11" d="M-494.6,1068.6c-0.4,0-0.8-0.1-1.1-0.4s-0.5-0.7-0.5-1.2s0.2-0.9,0.5-1.2c0.3-0.3,0.7-0.4,1.1-0.4
		s0.8,0.1,1.1,0.4s0.5,0.7,0.5,1.2s-0.2,0.9-0.5,1.2S-494.2,1068.6-494.6,1068.6z M-493.4,1084.6h-2.4v-13.5h2.4V1084.6z"/>
	
		<linearGradient id="SVGID_7_" gradientUnits="userSpaceOnUse" x1="-478.4283" y1="251.5175" x2="-490.4524" y2="263.5417" gradientTransform="matrix(1 0 0 -1 0 1336.2)">
		<stop  offset="2.040816e-002" style="stop-color:#5AADD1"/>
		<stop  offset="5.555695e-002" style="stop-color:#57ACD1"/>
		<stop  offset="0.4054" style="stop-color:#3FA1D2"/>
		<stop  offset="0.7279" style="stop-color:#309BD3"/>
		<stop  offset="0.9949" style="stop-color:#2B99D3"/>
	</linearGradient>
	<path class="st12" d="M-489.3,1071.5c0.6-0.1,1.3-0.3,2.2-0.4c0.9-0.2,2-0.2,3.2-0.2c1.1,0,2,0.2,2.7,0.5c0.7,0.3,1.3,0.7,1.7,1.3
		c0.4,0.5,0.7,1.2,0.9,2c0.2,0.8,0.3,1.6,0.3,2.5v7.6h-2.4v-7.1c0-0.8-0.1-1.5-0.2-2.1c-0.1-0.6-0.3-1.1-0.6-1.4
		c-0.3-0.3-0.6-0.6-1-0.8c-0.4-0.2-1-0.2-1.6-0.2c-0.3,0-0.5,0-0.8,0s-0.5,0-0.8,0.1c-0.3,0-0.5,0.1-0.7,0.1s-0.3,0.1-0.4,0.1v11.4
		h-2.4L-489.3,1071.5L-489.3,1071.5z"/>
	
		<linearGradient id="SVGID_8_" gradientUnits="userSpaceOnUse" x1="-464.8909" y1="253.5909" x2="-477.3436" y2="266.0435" gradientTransform="matrix(1 0 0 -1 0 1336.2)">
		<stop  offset="2.040816e-002" style="stop-color:#5AADD1"/>
		<stop  offset="5.555695e-002" style="stop-color:#57ACD1"/>
		<stop  offset="0.4054" style="stop-color:#3FA1D2"/>
		<stop  offset="0.7279" style="stop-color:#309BD3"/>
		<stop  offset="0.9949" style="stop-color:#2B99D3"/>
	</linearGradient>
	<path class="st13" d="M-472.1,1071.1h5.1v2h-5.1v6.2c0,0.7,0.1,1.2,0.2,1.7c0.1,0.4,0.3,0.8,0.5,1c0.2,0.3,0.5,0.4,0.8,0.5
		c0.3,0.1,0.7,0.2,1.1,0.2c0.7,0,1.3-0.1,1.8-0.2c0.4-0.2,0.8-0.3,0.9-0.4l0.5,2c-0.2,0.1-0.7,0.3-1.3,0.5s-1.3,0.3-2.1,0.3
		c-0.9,0-1.7-0.1-2.3-0.4c-0.6-0.2-1.1-0.6-1.4-1.1c-0.4-0.5-0.6-1-0.8-1.7s-0.2-1.5-0.2-2.4v-12.1l2.4-0.4v4.3H-472.1z"/>
	
		<linearGradient id="SVGID_9_" gradientUnits="userSpaceOnUse" x1="-453.753" y1="253.5529" x2="-463.4738" y2="263.2738" gradientTransform="matrix(1 0 0 -1 0 1336.2)">
		<stop  offset="2.040816e-002" style="stop-color:#5AADD1"/>
		<stop  offset="5.555695e-002" style="stop-color:#57ACD1"/>
		<stop  offset="0.4054" style="stop-color:#3FA1D2"/>
		<stop  offset="0.7279" style="stop-color:#309BD3"/>
		<stop  offset="0.9949" style="stop-color:#2B99D3"/>
	</linearGradient>
	<path class="st14" d="M-452.3,1077.8c0,1.1-0.2,2-0.5,2.9c-0.3,0.9-0.8,1.6-1.3,2.2c-0.6,0.6-1.2,1.1-2,1.4
		c-0.8,0.3-1.6,0.5-2.5,0.5s-1.8-0.2-2.5-0.5c-0.8-0.3-1.5-0.8-2-1.4c-0.6-0.6-1-1.4-1.3-2.2c-0.3-0.9-0.5-1.8-0.5-2.9
		s0.2-2,0.5-2.9c0.3-0.9,0.7-1.6,1.3-2.2s1.2-1.1,2-1.4c0.8-0.3,1.6-0.5,2.5-0.5s1.8,0.2,2.5,0.5c0.8,0.3,1.5,0.8,2,1.4
		s1,1.4,1.3,2.2C-452.5,1075.8-452.3,1076.8-452.3,1077.8z M-454.8,1077.8c0-1.5-0.3-2.7-1-3.6c-0.7-0.9-1.6-1.3-2.8-1.3
		s-2.1,0.4-2.8,1.3c-0.7,0.9-1,2.1-1,3.6s0.3,2.7,1,3.6c0.7,0.9,1.6,1.3,2.8,1.3s2.1-0.4,2.8-1.3
		C-455.1,1080.5-454.8,1079.4-454.8,1077.8z"/>
	
		<linearGradient id="SVGID_10_" gradientUnits="userSpaceOnUse" x1="-437.0416" y1="253.1024" x2="-449.0656" y2="265.1263" gradientTransform="matrix(1 0 0 -1 0 1336.2)">
		<stop  offset="2.040816e-002" style="stop-color:#5AADD1"/>
		<stop  offset="5.555695e-002" style="stop-color:#57ACD1"/>
		<stop  offset="0.4054" style="stop-color:#3FA1D2"/>
		<stop  offset="0.7279" style="stop-color:#309BD3"/>
		<stop  offset="0.9949" style="stop-color:#2B99D3"/>
	</linearGradient>
	<path class="st15" d="M-438.2,1084.2c-0.6,0.1-1.3,0.3-2.2,0.4c-0.9,0.2-2,0.2-3.2,0.2c-1,0-1.9-0.2-2.6-0.5
		c-0.7-0.3-1.3-0.7-1.7-1.3s-0.7-1.2-0.9-2c-0.2-0.8-0.3-1.6-0.3-2.5v-7.4h2.4v7.1c0,1.6,0.3,2.8,0.8,3.5s1.4,1.1,2.6,1.1
		c0.3,0,0.5,0,0.8,0c0.3,0,0.5,0,0.8-0.1c0.2,0,0.5-0.1,0.7-0.1c0.2,0,0.3-0.1,0.4-0.1v-11.4h2.4
		C-438.2,1071.1-438.2,1084.2-438.2,1084.2z"/>
	
		<linearGradient id="SVGID_11_" gradientUnits="userSpaceOnUse" x1="-427.4636" y1="255.7136" x2="-435.1458" y2="263.3957" gradientTransform="matrix(1 0 0 -1 0 1336.2)">
		<stop  offset="2.040816e-002" style="stop-color:#5AADD1"/>
		<stop  offset="5.555695e-002" style="stop-color:#57ACD1"/>
		<stop  offset="0.4054" style="stop-color:#3FA1D2"/>
		<stop  offset="0.7279" style="stop-color:#309BD3"/>
		<stop  offset="0.9949" style="stop-color:#2B99D3"/>
	</linearGradient>
	<path class="st16" d="M-429,1070.8c0.2,0,0.4,0,0.7,0c0.3,0,0.5,0.1,0.8,0.1s0.5,0.1,0.7,0.1c0.2,0,0.4,0.1,0.5,0.1l-0.4,2.1
		c-0.2-0.1-0.5-0.2-0.9-0.2s-1-0.1-1.7-0.1c-0.5,0-0.9,0-1.3,0.1c-0.4,0.1-0.7,0.2-0.9,0.2v11.4h-2.4v-12.9c0.6-0.2,1.3-0.4,2.1-0.6
		C-431,1070.9-430.1,1070.8-429,1070.8z"/>
</g>
<g>
	<g class="st0">
		<path class="st1" d="M-287.1,658.1c-0.6-1.5-2.3-2.3-3.8-1.7l-9.2,3.6c0.2,0.6,1.6,4.7,1.9,4.7c0.3,0,0.5,0.1,0.9-0.9
			c0.4-0.9,1.9,0,1.7,1.1c-0.2,1-1,0.7-1.3,0.8c-0.3,0-0.8,0.4-0.8,0.6c0.1,0.2,1.5,3.9,1.5,3.9l-4,1.5c0,0-0.4,0.7,0,1.1
			c0.5,0.4,0.8,0.7,0.6,1.2c-0.2,0.6-2.2,1.1-2.2,0.3c0-0.8-0.2-1.8-1-1.6c-0.7,0.2-4.1,1.6-4.8,1.8l4.1,10.5
			c0.6,1.5,2.3,2.3,3.8,1.7l17.8-7c1.5-0.6,2.3-2.3,1.7-3.8L-287.1,658.1z"/>
		<path class="st1" d="M-302.8,672.8c0.8-0.2,1,0.8,1,1.6c0,0.8,2,0.3,2.2-0.3c0.2-0.6-0.1-0.8-0.6-1.2c-0.5-0.4,0-1.1,0-1.1l4-1.5
			c0,0-1.4-3.7-1.5-3.9c-0.1-0.2,0.4-0.6,0.8-0.6c0.3,0,1.1,0.3,1.3-0.8c0.2-1-1.4-2-1.7-1.1c-0.4,0.9-0.6,0.9-0.9,0.9
			c-0.2,0-1.7-4.1-1.9-4.7l-8.6,3.4c-1.5,0.6-2.3,2.3-1.7,3.8l2.9,7.3C-306.9,674.3-303.5,673-302.8,672.8z"/>
		<path class="st1" d="M-302.6,672.7c0.8-0.2,1,0.8,1,1.6c0,0.8,2,0.3,2.2-0.3c0.2-0.6-0.1-0.8-0.6-1.2c-0.5-0.4,0-1.1,0-1.1l4-1.5
			c0,0-1.4-3.7-1.5-3.9c-0.1-0.2,0.4-0.6,0.8-0.6c0.3,0,1.1,0.3,1.3-0.8c0.2-1-1.4-2-1.7-1.1c-0.4,0.9-0.6,0.9-0.9,0.9
			c-0.2,0-1.7-4.1-1.9-4.7l-8.6,3.4c-1.5,0.6-2.3,2.3-1.7,3.8l2.9,7.3C-306.7,674.3-303.3,672.9-302.6,672.7z"/>
		<path class="st1" d="M-288,670.4c-0.8,0.2-1-0.8-1-1.6c0-0.8-2-0.3-2.2,0.3c-0.2,0.6,0.1,0.8,0.6,1.2c0.5,0.4,0.1,1.1,0.1,1.1
			l-4,1.6c0,0,1.5,3.7,1.5,3.8c0.1,0.2-0.4,0.6-0.8,0.6c-0.3,0-1.1-0.3-1.3,0.8c-0.2,1,1.4,2,1.7,1.1c0.3-0.9,0.6-0.9,0.9-0.9
			c0.2,0,1.7,4.1,2,4.7l8.6-3.5c1.5-0.6,2.2-2.3,1.6-3.8l-3-7.2C-283.9,668.7-287.3,670.2-288,670.4z"/>
		<path class="st1" d="M-287.8,670.3c-0.8,0.2-1-0.8-1-1.6c0-0.8-2-0.3-2.2,0.3c-0.2,0.6,0.1,0.8,0.6,1.2c0.5,0.4,0.1,1.1,0.1,1.1
			l-4,1.6c0,0,1.5,3.7,1.5,3.8c0.1,0.2-0.4,0.6-0.8,0.6c-0.3,0-1.1-0.3-1.3,0.8c-0.2,1,1.4,2,1.7,1.1c0.3-0.9,0.6-0.9,0.9-0.9
			c0.2,0,1.7,4.1,2,4.7l8.6-3.5c1.5-0.6,2.2-2.3,1.6-3.8l-3-7.2C-283.7,668.7-287.1,670.1-287.8,670.3z"/>
		<polygon class="st1" points="-293.4,659.8 -295.4,672.4 -292,660.2 		"/>
		<circle class="st1" cx="-291.5" cy="655.2" r="5.5"/>
		<circle class="st1" cx="-293.3" cy="652.6" r="1.3"/>
		<polygon class="st1" points="-293.3,659.8 -295.3,672.3 -291.8,660.1 		"/>
		<circle class="st1" cx="-291.4" cy="655.1" r="5.5"/>
		<circle class="st1" cx="-294.4" cy="653.4" r="1.2"/>
	</g>
	<g>
		<g>
			<g>
				<path class="st17" d="M-287.1,657.8c-0.6-1.5-2.3-2.3-3.8-1.7l-9.2,3.6c0.2,0.6,1.6,4.7,1.9,4.7c0.3,0,0.5,0.1,0.9-0.9
					c0.4-0.9,1.9,0,1.7,1.1c-0.2,1-1,0.7-1.3,0.8c-0.3,0-0.8,0.4-0.8,0.6c0.1,0.2,1.5,3.9,1.5,3.9l-4,1.5c0,0-0.4,0.7,0,1.1
					c0.5,0.4,0.8,0.7,0.6,1.2s-2.2,1.1-2.2,0.3c0-0.8-0.2-1.8-1-1.6c-0.7,0.2-4.1,1.6-4.8,1.8l4.1,10.5c0.6,1.5,2.3,2.3,3.8,1.7
					l17.8-7c1.5-0.6,2.3-2.3,1.7-3.8L-287.1,657.8z"/>
				<path class="st3" d="M-302.8,672.5c0.8-0.2,1,0.8,1,1.6c0,0.8,2,0.3,2.2-0.3s-0.1-0.8-0.6-1.2c-0.5-0.4,0-1.1,0-1.1l4-1.5
					c0,0-1.4-3.7-1.5-3.9c-0.1-0.2,0.4-0.6,0.8-0.6c0.3,0,1.1,0.3,1.3-0.8c0.2-1-1.4-2-1.7-1.1c-0.4,0.9-0.6,0.9-0.9,0.9
					c-0.2,0-1.7-4.1-1.9-4.7l-8.6,3.4c-1.5,0.6-2.3,2.3-1.7,3.8l2.9,7.3C-306.9,674-303.5,672.7-302.8,672.5z"/>
				<linearGradient id="SVGID_12_" gradientUnits="userSpaceOnUse" x1="-310.3821" y1="667.1263" x2="-295.3543" y2="667.1263">
					<stop  offset="2.040820e-002" style="stop-color:#80AF68"/>
					<stop  offset="0.9847" style="stop-color:#6BB149"/>
				</linearGradient>
				<path class="st18" d="M-302.6,672.5c0.8-0.2,1,0.8,1,1.6c0,0.8,2,0.3,2.2-0.3c0.2-0.6-0.1-0.8-0.6-1.2c-0.5-0.4,0-1.1,0-1.1
					l4-1.5c0,0-1.4-3.7-1.5-3.9c-0.1-0.2,0.4-0.6,0.8-0.6c0.3,0,1.1,0.3,1.3-0.8c0.2-1-1.4-2-1.7-1.1c-0.4,0.9-0.6,0.9-0.9,0.9
					c-0.2,0-1.7-4.1-1.9-4.7l-8.6,3.4c-1.5,0.6-2.3,2.3-1.7,3.8l2.9,7.3C-306.7,674-303.3,672.7-302.6,672.5z"/>
				<path class="st3" d="M-288,670.1c-0.8,0.2-1-0.8-1-1.6c0-0.8-2-0.3-2.2,0.3c-0.2,0.6,0.1,0.8,0.6,1.2c0.5,0.4,0.1,1.1,0.1,1.1
					l-4,1.6c0,0,1.5,3.7,1.5,3.8c0.1,0.2-0.4,0.6-0.8,0.6c-0.3,0-1.1-0.3-1.3,0.8c-0.2,1,1.4,2,1.7,1.1c0.3-0.9,0.6-0.9,0.9-0.9
					c0.2,0,1.7,4.1,2,4.7l8.6-3.5c1.5-0.6,2.2-2.3,1.6-3.8l-3-7.2C-283.9,668.5-287.3,669.9-288,670.1z"/>
				<linearGradient id="SVGID_13_" gradientUnits="userSpaceOnUse" x1="-282.2673" y1="680.1252" x2="-292.3438" y2="670.0488">
					<stop  offset="2.040820e-002" style="stop-color:#80AF68"/>
					<stop  offset="0.2761" style="stop-color:#77B05A"/>
					<stop  offset="0.6446" style="stop-color:#6EB14D"/>
					<stop  offset="0.9847" style="stop-color:#6BB149"/>
				</linearGradient>
				<path class="st19" d="M-287.8,670.1c-0.8,0.2-1-0.8-1-1.6c0-0.8-2-0.3-2.2,0.3c-0.2,0.6,0.1,0.8,0.6,1.2
					c0.5,0.4,0.1,1.1,0.1,1.1l-4,1.6c0,0,1.5,3.7,1.5,3.8c0.1,0.2-0.4,0.6-0.8,0.6c-0.3,0-1.1-0.3-1.3,0.8c-0.2,1,1.4,2,1.7,1.1
					c0.3-0.9,0.6-0.9,0.9-0.9c0.2,0,1.7,4.1,2,4.7l8.6-3.5c1.5-0.6,2.2-2.3,1.6-3.8l-3-7.2C-283.7,668.4-287.1,669.9-287.8,670.1z"
					/>
			</g>
			<g>
				<polygon class="st6" points="-293.4,659.6 -295.4,672.1 -292,659.9 				"/>
				<circle class="st6" cx="-291.5" cy="654.9" r="5.5"/>
				<circle class="st6" cx="-293.3" cy="652.3" r="1.3"/>
			</g>
			<g>
				<polygon class="st7" points="-293.3,659.5 -295.3,672 -291.8,659.9 				"/>
				<linearGradient id="SVGID_14_" gradientUnits="userSpaceOnUse" x1="-287.4574" y1="650.9313" x2="-295.2613" y2="658.7352">
					<stop  offset="2.040820e-002" style="stop-color:#D48D8D"/>
					<stop  offset="4.409328e-002" style="stop-color:#D28A8A"/>
					<stop  offset="0.2298" style="stop-color:#C17474"/>
					<stop  offset="0.4334" style="stop-color:#B66564"/>
					<stop  offset="0.6664" style="stop-color:#AF5C5B"/>
					<stop  offset="0.9949" style="stop-color:#AD5958"/>
				</linearGradient>
				<circle class="st20" cx="-291.4" cy="654.8" r="5.5"/>
			</g>
			<circle class="st9" cx="-294.4" cy="653.1" r="1.2"/>
		</g>
	</g>
</g>
<g>
	<linearGradient id="SVGID_15_" gradientUnits="userSpaceOnUse" x1="-265.702" y1="673.2982" x2="-275.9007" y2="663.0994">
		<stop  offset="2.040820e-002" style="stop-color:#5AADD1"/>
		<stop  offset="6.122256e-002" style="stop-color:#54ABD0"/>
		<stop  offset="0.3258" style="stop-color:#329FC8"/>
		<stop  offset="0.5775" style="stop-color:#1A96C3"/>
		<stop  offset="0.8086" style="stop-color:#0B91C0"/>
		<stop  offset="1" style="stop-color:#068FBF"/>
	</linearGradient>
	<path class="st21" d="M-269.1,660.6c2.5,0,4.5,0.5,5.8,1.4c1.4,1,2,2.4,2,4.3c0,1-0.2,1.9-0.6,2.7c-0.4,0.7-0.9,1.3-1.6,1.8
		c-0.7,0.5-1.6,0.8-2.6,1c-1,0.2-2.1,0.3-3.4,0.3h-2v6.7h-2.5v-17.8c0.7-0.2,1.5-0.3,2.4-0.4C-270.6,660.7-269.8,660.6-269.1,660.6z
		 M-268.9,662.9c-1.1,0-1.9,0-2.5,0.1v7.1h1.9c0.9,0,1.6-0.1,2.3-0.2c0.7-0.1,1.3-0.3,1.8-0.6c0.5-0.3,0.8-0.6,1.1-1.1
		c0.3-0.5,0.4-1.1,0.4-1.8c0-0.7-0.1-1.3-0.4-1.7c-0.3-0.5-0.6-0.8-1.1-1.1c-0.5-0.3-1-0.5-1.6-0.6
		C-267.6,662.9-268.2,662.9-268.9,662.9z"/>
	<linearGradient id="SVGID_16_" gradientUnits="userSpaceOnUse" x1="-251.7819" y1="674.8044" x2="-262.298" y2="664.2882">
		<stop  offset="2.040820e-002" style="stop-color:#5AADD1"/>
		<stop  offset="6.122256e-002" style="stop-color:#54ABD0"/>
		<stop  offset="0.3258" style="stop-color:#329FC8"/>
		<stop  offset="0.5775" style="stop-color:#1A96C3"/>
		<stop  offset="0.8086" style="stop-color:#0B91C0"/>
		<stop  offset="1" style="stop-color:#068FBF"/>
	</linearGradient>
	<path class="st22" d="M-257,662.9c-0.4,0-0.8-0.1-1.1-0.4c-0.3-0.3-0.5-0.7-0.5-1.2c0-0.5,0.2-0.9,0.5-1.2c0.3-0.3,0.7-0.4,1.1-0.4
		c0.4,0,0.8,0.1,1.1,0.4c0.3,0.3,0.5,0.7,0.5,1.2c0,0.5-0.2,0.9-0.5,1.2C-256.2,662.7-256.6,662.9-257,662.9z M-255.8,678.8h-2.4
		v-13.5h2.4V678.8z"/>
	<linearGradient id="SVGID_17_" gradientUnits="userSpaceOnUse" x1="-240.7357" y1="678.8368" x2="-252.7599" y2="666.8126">
		<stop  offset="2.040820e-002" style="stop-color:#5AADD1"/>
		<stop  offset="6.122256e-002" style="stop-color:#54ABD0"/>
		<stop  offset="0.3258" style="stop-color:#329FC8"/>
		<stop  offset="0.5775" style="stop-color:#1A96C3"/>
		<stop  offset="0.8086" style="stop-color:#0B91C0"/>
		<stop  offset="1" style="stop-color:#068FBF"/>
	</linearGradient>
	<path class="st23" d="M-251.7,665.7c0.6-0.1,1.3-0.3,2.2-0.4c0.9-0.2,2-0.2,3.2-0.2c1.1,0,2,0.2,2.7,0.5c0.7,0.3,1.3,0.7,1.7,1.3
		c0.4,0.5,0.7,1.2,0.9,2c0.2,0.8,0.3,1.6,0.3,2.5v7.6h-2.4v-7.1c0-0.8-0.1-1.5-0.2-2.1c-0.1-0.6-0.3-1.1-0.6-1.4
		c-0.3-0.4-0.6-0.6-1-0.8c-0.4-0.2-1-0.2-1.6-0.2c-0.3,0-0.5,0-0.8,0c-0.3,0-0.5,0-0.8,0.1c-0.3,0-0.5,0.1-0.7,0.1
		c-0.2,0-0.3,0.1-0.4,0.1v11.4h-2.4V665.7z"/>
	<linearGradient id="SVGID_18_" gradientUnits="userSpaceOnUse" x1="-227.3083" y1="676.8733" x2="-239.761" y2="664.4207">
		<stop  offset="2.040820e-002" style="stop-color:#5AADD1"/>
		<stop  offset="6.122256e-002" style="stop-color:#54ABD0"/>
		<stop  offset="0.3258" style="stop-color:#329FC8"/>
		<stop  offset="0.5775" style="stop-color:#1A96C3"/>
		<stop  offset="0.8086" style="stop-color:#0B91C0"/>
		<stop  offset="1" style="stop-color:#068FBF"/>
	</linearGradient>
	<path class="st24" d="M-234.5,665.3h5.1v2h-5.1v6.2c0,0.7,0.1,1.2,0.2,1.7c0.1,0.4,0.3,0.8,0.5,1c0.2,0.3,0.5,0.4,0.8,0.5
		c0.3,0.1,0.7,0.2,1.1,0.2c0.7,0,1.3-0.1,1.8-0.2c0.4-0.2,0.8-0.3,0.9-0.4l0.5,2c-0.2,0.1-0.7,0.3-1.3,0.5c-0.6,0.2-1.3,0.3-2.1,0.3
		c-0.9,0-1.7-0.1-2.3-0.4c-0.6-0.2-1.1-0.6-1.4-1.1c-0.4-0.5-0.6-1-0.8-1.7c-0.1-0.7-0.2-1.5-0.2-2.4v-12.1l2.4-0.4V665.3z"/>
	<linearGradient id="SVGID_19_" gradientUnits="userSpaceOnUse" x1="-216.2067" y1="676.9476" x2="-225.9276" y2="667.2267">
		<stop  offset="2.040820e-002" style="stop-color:#5AADD1"/>
		<stop  offset="6.122256e-002" style="stop-color:#54ABD0"/>
		<stop  offset="0.3258" style="stop-color:#329FC8"/>
		<stop  offset="0.5775" style="stop-color:#1A96C3"/>
		<stop  offset="0.8086" style="stop-color:#0B91C0"/>
		<stop  offset="1" style="stop-color:#068FBF"/>
	</linearGradient>
	<path class="st25" d="M-214.7,672.1c0,1.1-0.2,2-0.5,2.9c-0.3,0.9-0.8,1.6-1.3,2.2c-0.6,0.6-1.2,1.1-2,1.4
		c-0.8,0.3-1.6,0.5-2.5,0.5c-0.9,0-1.8-0.2-2.5-0.5c-0.8-0.3-1.5-0.8-2-1.4c-0.6-0.6-1-1.4-1.3-2.2c-0.3-0.9-0.5-1.8-0.5-2.9
		c0-1.1,0.2-2,0.5-2.9c0.3-0.9,0.7-1.6,1.3-2.2c0.6-0.6,1.2-1.1,2-1.4c0.8-0.3,1.6-0.5,2.5-0.5c0.9,0,1.8,0.2,2.5,0.5
		c0.8,0.3,1.5,0.8,2,1.4c0.6,0.6,1,1.4,1.3,2.2C-214.9,670.1-214.7,671-214.7,672.1z M-217.2,672.1c0-1.5-0.3-2.7-1-3.6
		c-0.7-0.9-1.6-1.3-2.8-1.3c-1.2,0-2.1,0.4-2.8,1.3c-0.7,0.9-1,2.1-1,3.6c0,1.5,0.3,2.7,1,3.6c0.7,0.9,1.6,1.3,2.8,1.3
		c1.2,0,2.1-0.4,2.8-1.3C-217.6,674.8-217.2,673.6-217.2,672.1z"/>
	<linearGradient id="SVGID_20_" gradientUnits="userSpaceOnUse" x1="-199.4405" y1="677.3433" x2="-211.4643" y2="665.3194">
		<stop  offset="2.040820e-002" style="stop-color:#5AADD1"/>
		<stop  offset="6.122256e-002" style="stop-color:#54ABD0"/>
		<stop  offset="0.3258" style="stop-color:#329FC8"/>
		<stop  offset="0.5775" style="stop-color:#1A96C3"/>
		<stop  offset="0.8086" style="stop-color:#0B91C0"/>
		<stop  offset="1" style="stop-color:#068FBF"/>
	</linearGradient>
	<path class="st26" d="M-200.6,678.5c-0.6,0.1-1.3,0.3-2.2,0.4c-0.9,0.2-2,0.2-3.2,0.2c-1,0-1.9-0.2-2.6-0.5
		c-0.7-0.3-1.3-0.7-1.7-1.3c-0.4-0.6-0.7-1.2-0.9-2c-0.2-0.8-0.3-1.6-0.3-2.5v-7.6h2.4v7.1c0,1.6,0.3,2.8,0.8,3.5
		c0.5,0.7,1.4,1.1,2.6,1.1c0.3,0,0.5,0,0.8,0c0.3,0,0.5,0,0.8-0.1c0.2,0,0.5-0.1,0.7-0.1c0.2,0,0.3-0.1,0.4-0.1v-11.4h2.4V678.5z"/>
	<linearGradient id="SVGID_21_" gradientUnits="userSpaceOnUse" x1="-189.9087" y1="674.7784" x2="-197.5909" y2="667.0962">
		<stop  offset="2.040820e-002" style="stop-color:#5AADD1"/>
		<stop  offset="6.122256e-002" style="stop-color:#54ABD0"/>
		<stop  offset="0.3258" style="stop-color:#329FC8"/>
		<stop  offset="0.5775" style="stop-color:#1A96C3"/>
		<stop  offset="0.8086" style="stop-color:#0B91C0"/>
		<stop  offset="1" style="stop-color:#068FBF"/>
	</linearGradient>
	<path class="st27" d="M-191.4,665c0.2,0,0.4,0,0.7,0c0.3,0,0.5,0.1,0.8,0.1c0.3,0,0.5,0.1,0.7,0.1c0.2,0,0.4,0.1,0.5,0.1l-0.4,2.1
		c-0.2-0.1-0.5-0.2-0.9-0.2c-0.4-0.1-1-0.1-1.7-0.1c-0.5,0-0.9,0-1.3,0.1c-0.4,0.1-0.7,0.2-0.9,0.2v11.4h-2.4v-12.9
		c0.6-0.2,1.3-0.4,2.1-0.6C-193.4,665.1-192.5,665-191.4,665z"/>
</g>
</svg>
